<svg width="664" height="727" viewBox="0 0 664 727" fill="none" xmlns="http://www.w3.org/2000/svg">
<g filter="url(#filter0_f_27_337)">
<g filter="url(#filter1_d_27_337)">
<path d="M615.653 558.575L615.131 559.251L599.764 579.107L599.013 580.078H37.3496L36.6084 579.279L18.168 559.422L17.5 558.703V469.603L18.2549 468.866L95.8916 393.208L103.554 35.2832L103.578 34.1406L104.459 33.4111L122.898 18.1377L123.593 17.5625H507.921L508.57 18.0244L530.084 33.2988L531.114 34.0303L531.137 35.2939L537.266 388.699L614.981 472.007L615.653 472.727V558.575Z" stroke="#EA384C" stroke-width="5" shape-rendering="crispEdges"/>
</g>
<g filter="url(#filter2_d_27_337)">
<path d="M73.7831 614.236L81.4665 687.553L99.9065 708.937H533.246L553.223 687.553L560.906 614.236" stroke="#EA384C" stroke-width="5"/>
</g>
<g filter="url(#filter3_d_27_337)">
<path d="M195.18 644.785H437.973" stroke="#EA384C" stroke-width="5"/>
</g>
<g filter="url(#filter4_d_27_337)">
<path d="M59.9535 481.349H570.127" stroke="#EA384C" stroke-width="5"/>
</g>
<g filter="url(#filter5_d_27_337)">
<path d="M196.716 99.4894H439.51" stroke="#EA384C" stroke-width="5"/>
</g>
<g filter="url(#filter6_d_27_337)">
<path d="M179.813 411.642C193.99 411.642 206.922 413.37 216.391 416.222C221.11 417.643 225.111 419.386 227.988 421.435C230.802 423.439 233.023 426.1 233.023 429.416C233.023 432.733 230.802 435.394 227.988 437.398C225.111 439.446 221.11 441.189 216.391 442.611C206.922 445.463 193.99 447.191 179.813 447.191C165.636 447.191 152.705 445.463 143.235 442.611C138.516 441.189 134.515 439.447 131.638 437.398C128.825 435.394 126.603 432.733 126.603 429.416C126.603 426.1 128.825 423.439 131.638 421.435C134.515 419.386 138.516 417.643 143.235 416.222C152.705 413.37 165.636 411.642 179.813 411.642Z" stroke="#EA384C" stroke-width="5" shape-rendering="crispEdges"/>
</g>
<g filter="url(#filter7_d_27_337)">
<path d="M318.114 411.642C332.291 411.642 345.222 413.37 354.692 416.222C359.411 417.643 363.411 419.386 366.288 421.435C369.102 423.439 371.323 426.1 371.323 429.416C371.323 432.733 369.102 435.394 366.288 437.398C363.411 439.446 359.411 441.189 354.692 442.611C345.222 445.463 332.291 447.191 318.114 447.191C303.937 447.191 291.005 445.463 281.535 442.611C276.816 441.189 272.816 439.447 269.939 437.398C267.125 435.394 264.904 432.733 264.904 429.416C264.904 426.1 267.125 423.439 269.939 421.435C272.816 419.386 276.816 417.643 281.535 416.222C291.005 413.37 303.937 411.642 318.114 411.642Z" stroke="#EA384C" stroke-width="5" shape-rendering="crispEdges"/>
</g>
<g filter="url(#filter8_d_27_337)">
<path d="M462.56 411.642C476.737 411.642 489.668 413.37 499.138 416.222C503.857 417.643 507.858 419.386 510.734 421.435C513.548 423.439 515.77 426.1 515.77 429.416C515.77 432.733 513.548 435.394 510.734 437.398C507.858 439.446 503.857 441.189 499.138 442.611C489.668 445.463 476.737 447.191 462.56 447.191C448.383 447.191 435.451 445.463 425.981 442.611C421.263 441.189 417.262 439.447 414.385 437.398C411.571 435.394 409.35 432.733 409.35 429.416C409.35 426.1 411.571 423.439 414.385 421.435C417.262 419.386 421.263 417.643 425.981 416.222C435.451 413.37 448.383 411.642 462.56 411.642Z" stroke="#EA384C" stroke-width="5" shape-rendering="crispEdges"/>
</g>
<g filter="url(#filter9_d_27_337)">
<rect x="145.043" y="54.2212" width="343.067" height="90.5366" rx="5.5" stroke="#EA384C" stroke-width="5" shape-rendering="crispEdges"/>
</g>
<g filter="url(#filter10_d_27_337)">
<path d="M548.613 229.322H565.516V324.023H548.613" stroke="white" stroke-width="5"/>
</g>
<g filter="url(#filter11_d_27_337)">
<path d="M576.274 279.727H613.154V160.587" stroke="white" stroke-width="5"/>
</g>
<g filter="url(#filter12_d_27_337)">
<path d="M613.153 78.6602C631.493 78.6602 646.387 93.4425 646.387 111.709C646.387 129.975 631.493 144.758 613.153 144.758C594.813 144.758 579.92 129.975 579.92 111.709C579.92 93.4425 594.813 78.6602 613.153 78.6602Z" stroke="#EA384C" stroke-width="5" shape-rendering="crispEdges"/>
</g>
</g>
<g filter="url(#filter13_d_27_337)">
<path d="M614.653 558.233L614.34 558.639L598.973 578.496L598.522 579.078H37.7861L37.3408 578.599L18.9004 558.741L18.5 558.31V470.024L18.9531 469.583L96.8828 393.64L104.554 35.3047L104.568 34.6191L105.097 34.1816L123.536 18.9072L123.953 18.5625H507.602L507.992 18.8398L529.505 34.1143L530.123 34.5527L530.137 35.3105L536.272 389.101L614.25 472.688L614.653 473.121V558.233Z" stroke="#EA384C" stroke-width="3" shape-rendering="crispEdges"/>
</g>
<g filter="url(#filter14_d_27_337)">
<path d="M73.7831 614.236L81.4665 687.553L99.9065 708.937H533.246L553.223 687.553L560.906 614.236" stroke="#EA384C" stroke-width="3"/>
</g>
<g filter="url(#filter15_d_27_337)">
<path d="M195.18 644.785H437.973" stroke="#EA384C" stroke-width="3"/>
</g>
<g filter="url(#filter16_d_27_337)">
<path d="M59.9535 481.349H570.127" stroke="#EA384C" stroke-width="3"/>
</g>
<g filter="url(#filter17_d_27_337)">
<path d="M196.716 99.4894H439.51" stroke="#EA384C" stroke-width="3"/>
</g>
<g filter="url(#filter18_d_27_337)">
<path d="M179.813 412.642C193.921 412.642 206.751 414.362 216.103 417.179C220.77 418.585 224.655 420.289 227.408 422.249C230.123 424.183 232.023 426.583 232.023 429.416C232.023 432.25 230.123 434.65 227.408 436.583C224.655 438.543 220.77 440.248 216.103 441.654C206.751 444.471 193.921 446.191 179.813 446.191C165.706 446.191 152.876 444.471 143.523 441.654C138.857 440.248 134.971 438.544 132.219 436.583C129.504 434.65 127.603 432.25 127.603 429.416C127.603 426.583 129.504 424.183 132.219 422.249C134.971 420.289 138.857 418.585 143.523 417.179C152.876 414.362 165.706 412.642 179.813 412.642Z" stroke="#EA384C" stroke-width="3" shape-rendering="crispEdges"/>
</g>
<g filter="url(#filter19_d_27_337)">
<path d="M318.114 412.642C332.221 412.642 345.051 414.362 354.404 417.179C359.07 418.585 362.956 420.289 365.708 422.249C368.423 424.183 370.323 426.583 370.323 429.416C370.323 432.25 368.423 434.65 365.708 436.583C362.956 438.543 359.07 440.248 354.404 441.654C345.051 444.471 332.221 446.191 318.114 446.191C304.006 446.191 291.176 444.471 281.823 441.654C277.157 440.248 273.271 438.544 270.519 436.583C267.804 434.65 265.904 432.25 265.904 429.416C265.904 426.583 267.804 424.183 270.519 422.249C273.271 420.289 277.157 418.585 281.823 417.179C291.176 414.362 304.006 412.642 318.114 412.642Z" stroke="#EA384C" stroke-width="3" shape-rendering="crispEdges"/>
</g>
<g filter="url(#filter20_d_27_337)">
<path d="M462.56 412.642C476.667 412.642 489.497 414.362 498.85 417.179C503.516 418.585 507.402 420.289 510.154 422.249C512.869 424.183 514.77 426.583 514.77 429.416C514.77 432.25 512.869 434.65 510.154 436.583C507.402 438.543 503.516 440.248 498.85 441.654C489.497 444.471 476.667 446.191 462.56 446.191C448.452 446.191 435.622 444.471 426.27 441.654C421.603 440.248 417.717 438.544 414.965 436.583C412.25 434.65 410.35 432.25 410.35 429.416C410.35 426.583 412.25 424.183 414.965 422.249C417.717 420.289 421.603 418.585 426.27 417.179C435.622 414.362 448.452 412.642 462.56 412.642Z" stroke="#EA384C" stroke-width="3" shape-rendering="crispEdges"/>
</g>
<g filter="url(#filter21_d_27_337)">
<rect x="146.043" y="55.2212" width="341.067" height="88.5366" rx="4.5" stroke="#EA384C" stroke-width="3" shape-rendering="crispEdges"/>
</g>
<g filter="url(#filter22_d_27_337)">
<path d="M548.613 229.322H565.516V324.023H548.613" stroke="white" stroke-width="3"/>
</g>
<g filter="url(#filter23_d_27_337)">
<path d="M576.274 279.727H613.154V160.587" stroke="white" stroke-width="3"/>
</g>
<g filter="url(#filter24_d_27_337)">
<path d="M613.153 79.6602C630.947 79.6602 645.387 94.0004 645.387 111.709C645.387 129.417 630.947 143.758 613.153 143.758C595.36 143.758 580.92 129.418 580.92 111.709C580.92 94.0004 595.36 79.6602 613.153 79.6602Z" stroke="#EA384C" stroke-width="3" shape-rendering="crispEdges"/>
</g>
<defs>
<filter id="filter0_f_27_337" x="0" y="0.0625" width="663.887" height="726.375" filterUnits="userSpaceOnUse" color-interpolation-filters="sRGB">
<feFlood flood-opacity="0" result="BackgroundImageFix"/>
<feBlend mode="normal" in="SourceGraphic" in2="BackgroundImageFix" result="shape"/>
<feGaussianBlur stdDeviation="7.5" result="effect1_foregroundBlur_27_337"/>
</filter>
<filter id="filter1_d_27_337" x="11" y="15.0625" width="611.153" height="575.515" filterUnits="userSpaceOnUse" color-interpolation-filters="sRGB">
<feFlood flood-opacity="0" result="BackgroundImageFix"/>
<feColorMatrix in="SourceAlpha" type="matrix" values="0 0 0 0 0 0 0 0 0 0 0 0 0 0 0 0 0 0 127 0" result="hardAlpha"/>
<feOffset dy="4"/>
<feGaussianBlur stdDeviation="2"/>
<feComposite in2="hardAlpha" operator="out"/>
<feColorMatrix type="matrix" values="0 0 0 0 0 0 0 0 0 0 0 0 0 0 0 0 0 0 0.25 0"/>
<feBlend mode="normal" in2="BackgroundImageFix" result="effect1_dropShadow_27_337"/>
<feBlend mode="normal" in="SourceGraphic" in2="effect1_dropShadow_27_337" result="shape"/>
</filter>
<filter id="filter2_d_27_337" x="67.2968" y="613.976" width="500.096" height="105.462" filterUnits="userSpaceOnUse" color-interpolation-filters="sRGB">
<feFlood flood-opacity="0" result="BackgroundImageFix"/>
<feColorMatrix in="SourceAlpha" type="matrix" values="0 0 0 0 0 0 0 0 0 0 0 0 0 0 0 0 0 0 127 0" result="hardAlpha"/>
<feOffset dy="4"/>
<feGaussianBlur stdDeviation="2"/>
<feComposite in2="hardAlpha" operator="out"/>
<feColorMatrix type="matrix" values="0 0 0 0 0 0 0 0 0 0 0 0 0 0 0 0 0 0 0.25 0"/>
<feBlend mode="normal" in2="BackgroundImageFix" result="effect1_dropShadow_27_337"/>
<feBlend mode="normal" in="SourceGraphic" in2="effect1_dropShadow_27_337" result="shape"/>
</filter>
<filter id="filter3_d_27_337" x="191.18" y="642.285" width="250.793" height="13" filterUnits="userSpaceOnUse" color-interpolation-filters="sRGB">
<feFlood flood-opacity="0" result="BackgroundImageFix"/>
<feColorMatrix in="SourceAlpha" type="matrix" values="0 0 0 0 0 0 0 0 0 0 0 0 0 0 0 0 0 0 127 0" result="hardAlpha"/>
<feOffset dy="4"/>
<feGaussianBlur stdDeviation="2"/>
<feComposite in2="hardAlpha" operator="out"/>
<feColorMatrix type="matrix" values="0 0 0 0 0 0 0 0 0 0 0 0 0 0 0 0 0 0 0.25 0"/>
<feBlend mode="normal" in2="BackgroundImageFix" result="effect1_dropShadow_27_337"/>
<feBlend mode="normal" in="SourceGraphic" in2="effect1_dropShadow_27_337" result="shape"/>
</filter>
<filter id="filter4_d_27_337" x="55.9535" y="478.849" width="518.173" height="13" filterUnits="userSpaceOnUse" color-interpolation-filters="sRGB">
<feFlood flood-opacity="0" result="BackgroundImageFix"/>
<feColorMatrix in="SourceAlpha" type="matrix" values="0 0 0 0 0 0 0 0 0 0 0 0 0 0 0 0 0 0 127 0" result="hardAlpha"/>
<feOffset dy="4"/>
<feGaussianBlur stdDeviation="2"/>
<feComposite in2="hardAlpha" operator="out"/>
<feColorMatrix type="matrix" values="0 0 0 0 0 0 0 0 0 0 0 0 0 0 0 0 0 0 0.25 0"/>
<feBlend mode="normal" in2="BackgroundImageFix" result="effect1_dropShadow_27_337"/>
<feBlend mode="normal" in="SourceGraphic" in2="effect1_dropShadow_27_337" result="shape"/>
</filter>
<filter id="filter5_d_27_337" x="192.716" y="96.9894" width="250.793" height="13" filterUnits="userSpaceOnUse" color-interpolation-filters="sRGB">
<feFlood flood-opacity="0" result="BackgroundImageFix"/>
<feColorMatrix in="SourceAlpha" type="matrix" values="0 0 0 0 0 0 0 0 0 0 0 0 0 0 0 0 0 0 127 0" result="hardAlpha"/>
<feOffset dy="4"/>
<feGaussianBlur stdDeviation="2"/>
<feComposite in2="hardAlpha" operator="out"/>
<feColorMatrix type="matrix" values="0 0 0 0 0 0 0 0 0 0 0 0 0 0 0 0 0 0 0.25 0"/>
<feBlend mode="normal" in2="BackgroundImageFix" result="effect1_dropShadow_27_337"/>
<feBlend mode="normal" in="SourceGraphic" in2="effect1_dropShadow_27_337" result="shape"/>
</filter>
<filter id="filter6_d_27_337" x="120.103" y="409.142" width="119.42" height="48.5488" filterUnits="userSpaceOnUse" color-interpolation-filters="sRGB">
<feFlood flood-opacity="0" result="BackgroundImageFix"/>
<feColorMatrix in="SourceAlpha" type="matrix" values="0 0 0 0 0 0 0 0 0 0 0 0 0 0 0 0 0 0 127 0" result="hardAlpha"/>
<feOffset dy="4"/>
<feGaussianBlur stdDeviation="2"/>
<feComposite in2="hardAlpha" operator="out"/>
<feColorMatrix type="matrix" values="0 0 0 0 0 0 0 0 0 0 0 0 0 0 0 0 0 0 0.25 0"/>
<feBlend mode="normal" in2="BackgroundImageFix" result="effect1_dropShadow_27_337"/>
<feBlend mode="normal" in="SourceGraphic" in2="effect1_dropShadow_27_337" result="shape"/>
</filter>
<filter id="filter7_d_27_337" x="258.404" y="409.142" width="119.42" height="48.5488" filterUnits="userSpaceOnUse" color-interpolation-filters="sRGB">
<feFlood flood-opacity="0" result="BackgroundImageFix"/>
<feColorMatrix in="SourceAlpha" type="matrix" values="0 0 0 0 0 0 0 0 0 0 0 0 0 0 0 0 0 0 127 0" result="hardAlpha"/>
<feOffset dy="4"/>
<feGaussianBlur stdDeviation="2"/>
<feComposite in2="hardAlpha" operator="out"/>
<feColorMatrix type="matrix" values="0 0 0 0 0 0 0 0 0 0 0 0 0 0 0 0 0 0 0.25 0"/>
<feBlend mode="normal" in2="BackgroundImageFix" result="effect1_dropShadow_27_337"/>
<feBlend mode="normal" in="SourceGraphic" in2="effect1_dropShadow_27_337" result="shape"/>
</filter>
<filter id="filter8_d_27_337" x="402.85" y="409.142" width="119.42" height="48.5488" filterUnits="userSpaceOnUse" color-interpolation-filters="sRGB">
<feFlood flood-opacity="0" result="BackgroundImageFix"/>
<feColorMatrix in="SourceAlpha" type="matrix" values="0 0 0 0 0 0 0 0 0 0 0 0 0 0 0 0 0 0 127 0" result="hardAlpha"/>
<feOffset dy="4"/>
<feGaussianBlur stdDeviation="2"/>
<feComposite in2="hardAlpha" operator="out"/>
<feColorMatrix type="matrix" values="0 0 0 0 0 0 0 0 0 0 0 0 0 0 0 0 0 0 0.25 0"/>
<feBlend mode="normal" in2="BackgroundImageFix" result="effect1_dropShadow_27_337"/>
<feBlend mode="normal" in="SourceGraphic" in2="effect1_dropShadow_27_337" result="shape"/>
</filter>
<filter id="filter9_d_27_337" x="138.543" y="51.7212" width="356.067" height="103.537" filterUnits="userSpaceOnUse" color-interpolation-filters="sRGB">
<feFlood flood-opacity="0" result="BackgroundImageFix"/>
<feColorMatrix in="SourceAlpha" type="matrix" values="0 0 0 0 0 0 0 0 0 0 0 0 0 0 0 0 0 0 127 0" result="hardAlpha"/>
<feOffset dy="4"/>
<feGaussianBlur stdDeviation="2"/>
<feComposite in2="hardAlpha" operator="out"/>
<feColorMatrix type="matrix" values="0 0 0 0 0 0 0 0 0 0 0 0 0 0 0 0 0 0 0.25 0"/>
<feBlend mode="normal" in2="BackgroundImageFix" result="effect1_dropShadow_27_337"/>
<feBlend mode="normal" in="SourceGraphic" in2="effect1_dropShadow_27_337" result="shape"/>
</filter>
<filter id="filter10_d_27_337" x="544.613" y="226.822" width="27.4033" height="107.701" filterUnits="userSpaceOnUse" color-interpolation-filters="sRGB">
<feFlood flood-opacity="0" result="BackgroundImageFix"/>
<feColorMatrix in="SourceAlpha" type="matrix" values="0 0 0 0 0 0 0 0 0 0 0 0 0 0 0 0 0 0 127 0" result="hardAlpha"/>
<feOffset dy="4"/>
<feGaussianBlur stdDeviation="2"/>
<feComposite in2="hardAlpha" operator="out"/>
<feColorMatrix type="matrix" values="0 0 0 0 0 0 0 0 0 0 0 0 0 0 0 0 0 0 0.25 0"/>
<feBlend mode="normal" in2="BackgroundImageFix" result="effect1_dropShadow_27_337"/>
<feBlend mode="normal" in="SourceGraphic" in2="effect1_dropShadow_27_337" result="shape"/>
</filter>
<filter id="filter11_d_27_337" x="572.274" y="160.587" width="47.38" height="129.64" filterUnits="userSpaceOnUse" color-interpolation-filters="sRGB">
<feFlood flood-opacity="0" result="BackgroundImageFix"/>
<feColorMatrix in="SourceAlpha" type="matrix" values="0 0 0 0 0 0 0 0 0 0 0 0 0 0 0 0 0 0 127 0" result="hardAlpha"/>
<feOffset dy="4"/>
<feGaussianBlur stdDeviation="2"/>
<feComposite in2="hardAlpha" operator="out"/>
<feColorMatrix type="matrix" values="0 0 0 0 0 0 0 0 0 0 0 0 0 0 0 0 0 0 0.25 0"/>
<feBlend mode="normal" in2="BackgroundImageFix" result="effect1_dropShadow_27_337"/>
<feBlend mode="normal" in="SourceGraphic" in2="effect1_dropShadow_27_337" result="shape"/>
</filter>
<filter id="filter12_d_27_337" x="573.42" y="76.1602" width="79.4667" height="79.0975" filterUnits="userSpaceOnUse" color-interpolation-filters="sRGB">
<feFlood flood-opacity="0" result="BackgroundImageFix"/>
<feColorMatrix in="SourceAlpha" type="matrix" values="0 0 0 0 0 0 0 0 0 0 0 0 0 0 0 0 0 0 127 0" result="hardAlpha"/>
<feOffset dy="4"/>
<feGaussianBlur stdDeviation="2"/>
<feComposite in2="hardAlpha" operator="out"/>
<feColorMatrix type="matrix" values="0 0 0 0 0 0 0 0 0 0 0 0 0 0 0 0 0 0 0.25 0"/>
<feBlend mode="normal" in2="BackgroundImageFix" result="effect1_dropShadow_27_337"/>
<feBlend mode="normal" in="SourceGraphic" in2="effect1_dropShadow_27_337" result="shape"/>
</filter>
<filter id="filter13_d_27_337" x="13" y="17.0625" width="607.153" height="571.515" filterUnits="userSpaceOnUse" color-interpolation-filters="sRGB">
<feFlood flood-opacity="0" result="BackgroundImageFix"/>
<feColorMatrix in="SourceAlpha" type="matrix" values="0 0 0 0 0 0 0 0 0 0 0 0 0 0 0 0 0 0 127 0" result="hardAlpha"/>
<feOffset dy="4"/>
<feGaussianBlur stdDeviation="2"/>
<feComposite in2="hardAlpha" operator="out"/>
<feColorMatrix type="matrix" values="0 0 0 0 0 0 0 0 0 0 0 0 0 0 0 0 0 0 0.25 0"/>
<feBlend mode="normal" in2="BackgroundImageFix" result="effect1_dropShadow_27_337"/>
<feBlend mode="normal" in="SourceGraphic" in2="effect1_dropShadow_27_337" result="shape"/>
</filter>
<filter id="filter14_d_27_337" x="68.2913" y="614.08" width="498.107" height="104.358" filterUnits="userSpaceOnUse" color-interpolation-filters="sRGB">
<feFlood flood-opacity="0" result="BackgroundImageFix"/>
<feColorMatrix in="SourceAlpha" type="matrix" values="0 0 0 0 0 0 0 0 0 0 0 0 0 0 0 0 0 0 127 0" result="hardAlpha"/>
<feOffset dy="4"/>
<feGaussianBlur stdDeviation="2"/>
<feComposite in2="hardAlpha" operator="out"/>
<feColorMatrix type="matrix" values="0 0 0 0 0 0 0 0 0 0 0 0 0 0 0 0 0 0 0.25 0"/>
<feBlend mode="normal" in2="BackgroundImageFix" result="effect1_dropShadow_27_337"/>
<feBlend mode="normal" in="SourceGraphic" in2="effect1_dropShadow_27_337" result="shape"/>
</filter>
<filter id="filter15_d_27_337" x="191.18" y="643.285" width="250.793" height="11" filterUnits="userSpaceOnUse" color-interpolation-filters="sRGB">
<feFlood flood-opacity="0" result="BackgroundImageFix"/>
<feColorMatrix in="SourceAlpha" type="matrix" values="0 0 0 0 0 0 0 0 0 0 0 0 0 0 0 0 0 0 127 0" result="hardAlpha"/>
<feOffset dy="4"/>
<feGaussianBlur stdDeviation="2"/>
<feComposite in2="hardAlpha" operator="out"/>
<feColorMatrix type="matrix" values="0 0 0 0 0 0 0 0 0 0 0 0 0 0 0 0 0 0 0.25 0"/>
<feBlend mode="normal" in2="BackgroundImageFix" result="effect1_dropShadow_27_337"/>
<feBlend mode="normal" in="SourceGraphic" in2="effect1_dropShadow_27_337" result="shape"/>
</filter>
<filter id="filter16_d_27_337" x="55.9535" y="479.849" width="518.173" height="11" filterUnits="userSpaceOnUse" color-interpolation-filters="sRGB">
<feFlood flood-opacity="0" result="BackgroundImageFix"/>
<feColorMatrix in="SourceAlpha" type="matrix" values="0 0 0 0 0 0 0 0 0 0 0 0 0 0 0 0 0 0 127 0" result="hardAlpha"/>
<feOffset dy="4"/>
<feGaussianBlur stdDeviation="2"/>
<feComposite in2="hardAlpha" operator="out"/>
<feColorMatrix type="matrix" values="0 0 0 0 0 0 0 0 0 0 0 0 0 0 0 0 0 0 0.25 0"/>
<feBlend mode="normal" in2="BackgroundImageFix" result="effect1_dropShadow_27_337"/>
<feBlend mode="normal" in="SourceGraphic" in2="effect1_dropShadow_27_337" result="shape"/>
</filter>
<filter id="filter17_d_27_337" x="192.716" y="97.9894" width="250.793" height="11" filterUnits="userSpaceOnUse" color-interpolation-filters="sRGB">
<feFlood flood-opacity="0" result="BackgroundImageFix"/>
<feColorMatrix in="SourceAlpha" type="matrix" values="0 0 0 0 0 0 0 0 0 0 0 0 0 0 0 0 0 0 127 0" result="hardAlpha"/>
<feOffset dy="4"/>
<feGaussianBlur stdDeviation="2"/>
<feComposite in2="hardAlpha" operator="out"/>
<feColorMatrix type="matrix" values="0 0 0 0 0 0 0 0 0 0 0 0 0 0 0 0 0 0 0.25 0"/>
<feBlend mode="normal" in2="BackgroundImageFix" result="effect1_dropShadow_27_337"/>
<feBlend mode="normal" in="SourceGraphic" in2="effect1_dropShadow_27_337" result="shape"/>
</filter>
<filter id="filter18_d_27_337" x="122.103" y="411.142" width="115.42" height="44.5488" filterUnits="userSpaceOnUse" color-interpolation-filters="sRGB">
<feFlood flood-opacity="0" result="BackgroundImageFix"/>
<feColorMatrix in="SourceAlpha" type="matrix" values="0 0 0 0 0 0 0 0 0 0 0 0 0 0 0 0 0 0 127 0" result="hardAlpha"/>
<feOffset dy="4"/>
<feGaussianBlur stdDeviation="2"/>
<feComposite in2="hardAlpha" operator="out"/>
<feColorMatrix type="matrix" values="0 0 0 0 0 0 0 0 0 0 0 0 0 0 0 0 0 0 0.25 0"/>
<feBlend mode="normal" in2="BackgroundImageFix" result="effect1_dropShadow_27_337"/>
<feBlend mode="normal" in="SourceGraphic" in2="effect1_dropShadow_27_337" result="shape"/>
</filter>
<filter id="filter19_d_27_337" x="260.404" y="411.142" width="115.42" height="44.5488" filterUnits="userSpaceOnUse" color-interpolation-filters="sRGB">
<feFlood flood-opacity="0" result="BackgroundImageFix"/>
<feColorMatrix in="SourceAlpha" type="matrix" values="0 0 0 0 0 0 0 0 0 0 0 0 0 0 0 0 0 0 127 0" result="hardAlpha"/>
<feOffset dy="4"/>
<feGaussianBlur stdDeviation="2"/>
<feComposite in2="hardAlpha" operator="out"/>
<feColorMatrix type="matrix" values="0 0 0 0 0 0 0 0 0 0 0 0 0 0 0 0 0 0 0.25 0"/>
<feBlend mode="normal" in2="BackgroundImageFix" result="effect1_dropShadow_27_337"/>
<feBlend mode="normal" in="SourceGraphic" in2="effect1_dropShadow_27_337" result="shape"/>
</filter>
<filter id="filter20_d_27_337" x="404.85" y="411.142" width="115.42" height="44.5488" filterUnits="userSpaceOnUse" color-interpolation-filters="sRGB">
<feFlood flood-opacity="0" result="BackgroundImageFix"/>
<feColorMatrix in="SourceAlpha" type="matrix" values="0 0 0 0 0 0 0 0 0 0 0 0 0 0 0 0 0 0 127 0" result="hardAlpha"/>
<feOffset dy="4"/>
<feGaussianBlur stdDeviation="2"/>
<feComposite in2="hardAlpha" operator="out"/>
<feColorMatrix type="matrix" values="0 0 0 0 0 0 0 0 0 0 0 0 0 0 0 0 0 0 0.25 0"/>
<feBlend mode="normal" in2="BackgroundImageFix" result="effect1_dropShadow_27_337"/>
<feBlend mode="normal" in="SourceGraphic" in2="effect1_dropShadow_27_337" result="shape"/>
</filter>
<filter id="filter21_d_27_337" x="140.543" y="53.7212" width="352.067" height="99.5366" filterUnits="userSpaceOnUse" color-interpolation-filters="sRGB">
<feFlood flood-opacity="0" result="BackgroundImageFix"/>
<feColorMatrix in="SourceAlpha" type="matrix" values="0 0 0 0 0 0 0 0 0 0 0 0 0 0 0 0 0 0 127 0" result="hardAlpha"/>
<feOffset dy="4"/>
<feGaussianBlur stdDeviation="2"/>
<feComposite in2="hardAlpha" operator="out"/>
<feColorMatrix type="matrix" values="0 0 0 0 0 0 0 0 0 0 0 0 0 0 0 0 0 0 0.25 0"/>
<feBlend mode="normal" in2="BackgroundImageFix" result="effect1_dropShadow_27_337"/>
<feBlend mode="normal" in="SourceGraphic" in2="effect1_dropShadow_27_337" result="shape"/>
</filter>
<filter id="filter22_d_27_337" x="544.613" y="227.822" width="26.4033" height="105.701" filterUnits="userSpaceOnUse" color-interpolation-filters="sRGB">
<feFlood flood-opacity="0" result="BackgroundImageFix"/>
<feColorMatrix in="SourceAlpha" type="matrix" values="0 0 0 0 0 0 0 0 0 0 0 0 0 0 0 0 0 0 127 0" result="hardAlpha"/>
<feOffset dy="4"/>
<feGaussianBlur stdDeviation="2"/>
<feComposite in2="hardAlpha" operator="out"/>
<feColorMatrix type="matrix" values="0 0 0 0 0 0 0 0 0 0 0 0 0 0 0 0 0 0 0.25 0"/>
<feBlend mode="normal" in2="BackgroundImageFix" result="effect1_dropShadow_27_337"/>
<feBlend mode="normal" in="SourceGraphic" in2="effect1_dropShadow_27_337" result="shape"/>
</filter>
<filter id="filter23_d_27_337" x="572.274" y="160.587" width="46.38" height="128.64" filterUnits="userSpaceOnUse" color-interpolation-filters="sRGB">
<feFlood flood-opacity="0" result="BackgroundImageFix"/>
<feColorMatrix in="SourceAlpha" type="matrix" values="0 0 0 0 0 0 0 0 0 0 0 0 0 0 0 0 0 0 127 0" result="hardAlpha"/>
<feOffset dy="4"/>
<feGaussianBlur stdDeviation="2"/>
<feComposite in2="hardAlpha" operator="out"/>
<feColorMatrix type="matrix" values="0 0 0 0 0 0 0 0 0 0 0 0 0 0 0 0 0 0 0.25 0"/>
<feBlend mode="normal" in2="BackgroundImageFix" result="effect1_dropShadow_27_337"/>
<feBlend mode="normal" in="SourceGraphic" in2="effect1_dropShadow_27_337" result="shape"/>
</filter>
<filter id="filter24_d_27_337" x="575.42" y="78.1602" width="75.4667" height="75.0975" filterUnits="userSpaceOnUse" color-interpolation-filters="sRGB">
<feFlood flood-opacity="0" result="BackgroundImageFix"/>
<feColorMatrix in="SourceAlpha" type="matrix" values="0 0 0 0 0 0 0 0 0 0 0 0 0 0 0 0 0 0 127 0" result="hardAlpha"/>
<feOffset dy="4"/>
<feGaussianBlur stdDeviation="2"/>
<feComposite in2="hardAlpha" operator="out"/>
<feColorMatrix type="matrix" values="0 0 0 0 0 0 0 0 0 0 0 0 0 0 0 0 0 0 0.25 0"/>
<feBlend mode="normal" in2="BackgroundImageFix" result="effect1_dropShadow_27_337"/>
<feBlend mode="normal" in="SourceGraphic" in2="effect1_dropShadow_27_337" result="shape"/>
</filter>
</defs>
</svg>
